# xmcd CD database file
#
# Track frame offsets:
#	150
#	24002
#	72715
#	88215
#	137787
#	143312
#	157045
#	188932
#
# Disc length: 3029 seconds
#
# Revision: 0
# Processed by: cddbd v1.5.1PL2 Copyright (c) Steve Scherf et al.
# Submitted via: CDex 1.51
#
DISCID=6b0bd308
DTITLE=Ronald Snijders - Live! Kaseko Mundial!
DYEAR=1900
DGENRE=Jazz
TTITLE0=Badyi
TTITLE1=Winti Meets Kaseko
TTITLE2=prasdansi
TTITLE3=Seven Wings
TTITLE4=Prasdansi II
TTITLE5=JW-one
TTITLE6=Bun Sani
TTITLE7=Saramaka
EXTD=
EXTT0=
EXTT1=
EXTT2=
EXTT3=
EXTT4=
EXTT5=
EXTT6=
EXTT7=
PLAYORDER=
